<?xml version="1.0" standalone="no"?>
<!DOCTYPE svg PUBLIC "-//W3C//DTD SVG 20010904//EN"
 "http://www.w3.org/TR/2001/REC-SVG-20010904/DTD/svg10.dtd">
<svg version="1.0" xmlns="http://www.w3.org/2000/svg"
 width="256.000000pt" height="256.000000pt" viewBox="0 0 256.000000 256.000000"
 preserveAspectRatio="xMidYMid meet">

<g transform="translate(0.000000,256.000000) scale(0.100000,-0.100000)"
fill="#000000" stroke="none">
<path d="M1862 2548 c-9 -9 -12 -83 -12 -273 l0 -260 -152 -82 -151 -82 -29
62 c-55 116 -108 146 -189 109 -56 -25 -88 -60 -95 -104 -5 -27 2 -50 29 -104
19 -39 42 -76 50 -82 13 -11 11 -20 -9 -70 -30 -73 -31 -118 -4 -127 27 -9 47
9 56 48 18 87 26 93 289 236 135 73 248 131 251 128 10 -9 -24 -72 -52 -98
-16 -14 -108 -74 -206 -133 -97 -59 -179 -114 -182 -123 -7 -18 10 -43 30 -43
19 0 18 -12 -13 -107 l-27 -83 -74 -31 c-40 -16 -80 -33 -87 -35 -11 -4 -9 9
6 58 23 76 19 108 -16 108 -30 0 -36 -11 -69 -128 -20 -71 -29 -133 -37 -258
l-10 -166 -84 -174 -84 -174 -76 0 c-125 0 -161 -33 -172 -158 l-5 -67 -183 3
c-207 4 -240 -4 -275 -60 -16 -26 -20 -50 -20 -115 l0 -83 -39 0 c-76 0 -114
-33 -79 -68 9 -9 275 -12 1135 -12 l1122 0 12 22 c17 32 -19 58 -82 58 l-49 0
0 498 c0 475 -1 498 -20 529 -32 53 -63 63 -205 63 l-125 0 0 328 c0 290 2
333 17 363 9 19 19 62 21 95 4 53 1 65 -17 83 -12 12 -21 34 -21 51 l0 30 233
0 c214 0 235 2 250 18 10 10 17 28 17 40 0 23 -7 31 -80 96 l-43 39 61 54 c47
42 62 61 62 82 0 50 -7 51 -260 51 l-236 0 -11 30 c-12 32 -39 40 -61 18z
m411 -167 c-29 -26 -53 -56 -53 -67 0 -10 21 -40 47 -66 l47 -48 -192 0 -192
0 0 115 0 115 198 0 197 0 -52 -49z m-833 -482 c17 -33 28 -68 25 -78 -6 -21
-69 -53 -89 -45 -19 7 -66 97 -66 128 0 17 8 30 28 40 52 29 69 22 102 -45z
m410 -439 c0 -270 -1 -290 -17 -290 -29 0 -81 -37 -98 -69 -11 -23 -15 -63
-15 -170 0 -134 -1 -139 -20 -134 -24 6 -24 6 -5 161 19 149 20 146 -95 281
-44 52 -80 99 -80 105 0 6 19 67 42 137 l41 126 116 71 c64 39 119 72 124 72
4 0 7 -130 7 -290z m-450 -327 c-41 -237 -30 -209 -167 -392 -143 -189 -141
-187 -148 -179 -3 3 29 77 71 164 l76 159 8 115 c5 63 9 133 9 156 l1 41 83
35 c45 19 83 32 85 27 2 -4 -6 -61 -18 -126z m168 29 c40 -50 62 -85 62 -102
0 -39 -29 -252 -35 -258 -14 -14 -23 23 -33 128 -12 119 -19 135 -76 167 -13
7 -13 19 -3 76 6 37 14 67 17 66 3 0 33 -35 68 -77z m605 -73 c12 -7 25 -17
29 -23 4 -6 8 -230 8 -498 l0 -488 -210 0 -209 0 -3 121 c-3 101 -6 124 -20
132 -12 8 -21 7 -32 -2 -13 -11 -16 -36 -16 -132 l0 -119 -205 0 -205 0 0 307
c0 271 2 309 17 325 14 16 34 18 186 18 217 0 207 7 207 -145 0 -121 9 -143
50 -130 20 6 20 13 20 290 0 162 4 295 10 310 5 14 20 30 32 35 34 13 315 12
341 -1z m-692 -115 c4 -21 9 -69 13 -106 l7 -68 -61 0 c-33 0 -60 2 -60 5 0 3
12 23 26 44 15 23 30 67 37 105 12 73 28 81 38 20z m-251 -393 c0 -24 -3 -28
-20 -24 -18 5 -19 6 -2 29 22 30 22 30 22 -5z m-22 -107 c21 -15 22 -20 22
-205 l0 -189 -205 0 -205 0 0 189 c0 239 -16 221 205 221 129 0 165 -3 183
-16z m-480 -226 c7 -7 12 -43 12 -90 l0 -78 -205 0 -205 0 0 68 c0 113 -2 112
209 112 124 0 181 -4 189 -12z"/>
</g>
</svg>
