<?xml version="1.0" standalone="no"?>
<!DOCTYPE svg PUBLIC "-//W3C//DTD SVG 20010904//EN"
 "http://www.w3.org/TR/2001/REC-SVG-20010904/DTD/svg10.dtd">
<svg version="1.0" xmlns="http://www.w3.org/2000/svg"
 width="256.000000pt" height="256.000000pt" viewBox="0 0 256.000000 256.000000"
 preserveAspectRatio="xMidYMid meet">

<g transform="translate(0.000000,256.000000) scale(0.100000,-0.100000)"
fill="#000000" stroke="none">
<path d="M78 2539 c-43 -22 -78 -81 -78 -129 0 -76 74 -150 150 -150 44 0 107
35 125 70 l16 30 247 0 247 0 -88 -48 c-115 -62 -196 -121 -203 -150 -7 -26
20 -62 46 -62 10 0 35 14 56 30 104 83 255 154 414 194 57 14 107 26 111 26 5
0 9 -13 9 -29 0 -54 18 -61 150 -61 132 0 150 7 150 61 0 16 4 29 9 29 27 0
222 -56 284 -81 81 -34 183 -92 241 -138 21 -17 46 -31 56 -31 26 0 53 36 46
62 -7 29 -88 88 -203 150 l-88 48 247 0 247 0 16 -30 c18 -35 81 -70 125 -70
76 0 150 74 150 150 0 76 -74 150 -150 150 -44 0 -107 -35 -125 -70 l-16 -30
-419 0 -420 0 0 34 c0 59 -16 66 -150 66 -134 0 -150 -7 -150 -66 l0 -34 -420
0 -419 0 -16 30 c-18 36 -81 70 -127 70 -18 -1 -50 -10 -70 -21z m106 -95 c31
-30 9 -84 -34 -84 -24 0 -50 26 -50 50 0 24 26 50 50 50 10 0 26 -7 34 -16z
m1146 -34 l0 -50 -50 0 -50 0 0 50 0 50 50 0 50 0 0 -50z m1114 34 c9 -8 16
-24 16 -34 0 -10 -7 -26 -16 -34 -8 -9 -24 -16 -34 -16 -43 0 -65 54 -34 84 8
9 24 16 34 16 10 0 26 -7 34 -16z"/>
<path d="M366 2044 c-31 -30 -9 -84 34 -84 24 0 50 26 50 50 0 24 -26 50 -50
50 -10 0 -26 -7 -34 -16z"/>
<path d="M1254 2052 c-14 -8 -524 -939 -524 -955 0 -6 41 -120 91 -254 l92
-242 -31 -26 c-37 -31 -57 -89 -48 -139 8 -40 47 -92 76 -101 19 -6 20 -16 20
-155 0 -122 3 -151 16 -164 13 -14 58 -16 334 -16 276 0 321 2 334 16 13 13
16 42 16 164 0 139 1 149 20 155 29 9 68 61 76 101 9 50 -11 108 -48 139 l-31
26 92 242 c50 134 91 248 91 254 0 16 -510 947 -524 955 -6 4 -18 8 -26 8 -8
0 -20 -4 -26 -8z m-24 -529 l0 -288 -29 -17 c-126 -71 -68 -268 79 -268 147 0
205 197 79 268 l-29 17 0 290 0 290 180 -330 c99 -181 180 -333 180 -337 0 -5
-31 -8 -69 -8 -75 0 -95 -12 -89 -52 4 -31 42 -48 111 -48 39 0 57 -4 56 -12
0 -7 -35 -103 -77 -213 l-77 -200 -265 0 -265 0 -77 200 c-42 110 -77 206 -77
213 -1 8 17 12 57 12 68 0 106 17 110 48 6 40 -14 52 -89 52 -38 0 -69 3 -69
7 0 7 353 662 358 663 1 0 2 -129 2 -287z m88 -395 c7 -7 12 -21 12 -33 0 -28
-19 -45 -50 -45 -14 0 -31 5 -38 12 -15 15 -15 51 0 66 15 15 61 15 76 0z
m302 -632 c18 -22 8 -59 -20 -73 -36 -18 -604 -18 -640 0 -28 14 -38 51 -20
73 18 21 662 21 680 0z m-90 -291 l0 -105 -250 0 -250 0 0 105 0 105 250 0
250 0 0 -105z"/>
<path d="M2126 2044 c-9 -8 -16 -24 -16 -34 0 -10 7 -26 16 -34 8 -9 24 -16
34 -16 43 0 65 54 34 84 -8 9 -24 16 -34 16 -10 0 -26 -7 -34 -16z"/>
<path d="M240 1858 c-46 -76 -106 -248 -125 -360 -6 -36 -8 -38 -45 -38 -63 0
-70 -14 -70 -150 0 -154 -4 -150 150 -150 154 0 150 -4 150 150 0 132 -7 150
-61 150 -16 0 -29 4 -29 8 0 46 62 234 108 326 30 62 20 96 -28 96 -23 0 -35
-7 -50 -32z m-40 -548 l0 -50 -50 0 -50 0 0 50 0 50 50 0 50 0 0 -50z"/>
<path d="M2229 1867 c-9 -20 -7 -33 13 -73 46 -92 108 -280 108 -326 0 -4 -13
-8 -29 -8 -54 0 -61 -18 -61 -150 0 -154 -4 -150 150 -150 154 0 150 -4 150
150 0 136 -7 150 -70 150 -37 0 -39 2 -45 38 -14 85 -59 222 -98 302 -39 78
-45 85 -74 88 -27 3 -35 -1 -44 -21z m231 -557 l0 -50 -50 0 -50 0 0 50 0 50
50 0 50 0 0 -50z"/>
</g>
</svg>
