<?xml version="1.0" standalone="no"?>
<!DOCTYPE svg PUBLIC "-//W3C//DTD SVG 20010904//EN"
 "http://www.w3.org/TR/2001/REC-SVG-20010904/DTD/svg10.dtd">
<svg version="1.0" xmlns="http://www.w3.org/2000/svg"
 width="256.000000pt" height="256.000000pt" viewBox="0 0 256.000000 256.000000"
 preserveAspectRatio="xMidYMid meet">

<g transform="translate(0.000000,256.000000) scale(0.100000,-0.100000)"
fill="#000000" stroke="none">
<path d="M1766 2538 c-9 -12 -16 -41 -16 -63 0 -40 -2 -42 -49 -62 l-50 -21
-27 30 c-53 55 -65 51 -170 -53 -52 -51 -94 -99 -94 -106 0 -10 -133 -13 -613
-15 l-613 -3 -41 -27 c-22 -15 -51 -44 -64 -65 l-24 -38 0 -755 0 -755 24 -38
c13 -21 42 -50 64 -65 l41 -27 428 -3 428 -3 0 -84 0 -85 -74 0 c-86 0 -119
-10 -159 -48 -45 -42 -60 -81 -61 -153 -2 -108 -46 -99 508 -99 362 0 485 3
494 12 17 17 15 152 -2 186 -19 36 -65 78 -99 91 -16 6 -64 11 -108 11 l-79 0
0 85 0 85 419 0 419 0 53 28 c43 22 59 38 81 81 l28 53 0 432 0 433 25 23 c33
31 32 53 -8 97 l-34 36 21 49 c19 46 21 48 61 48 22 0 51 7 63 16 21 14 22 22
22 144 0 122 -1 130 -22 144 -12 9 -41 16 -63 16 -40 0 -42 2 -61 48 l-21 49
34 36 c18 20 33 45 33 55 0 9 -42 60 -94 111 -105 104 -117 108 -170 53 l-27
-30 -50 21 c-47 20 -49 22 -49 62 0 22 -7 51 -16 63 -14 21 -22 22 -144 22
-122 0 -130 -1 -144 -22z m204 -122 c0 -35 5 -48 22 -60 12 -9 29 -16 38 -16
8 0 42 -14 74 -30 32 -17 66 -30 74 -30 9 0 30 13 47 30 l31 30 42 -43 42 -43
-30 -29 c-37 -36 -37 -48 0 -121 16 -32 30 -66 30 -74 0 -9 7 -26 16 -38 12
-17 25 -22 60 -22 l44 0 0 -60 0 -60 -44 0 c-51 0 -60 -8 -86 -84 -10 -31 -26
-66 -34 -78 -23 -33 -20 -58 14 -93 l30 -31 -43 -42 -43 -42 -29 30 c-31 33
-59 38 -90 16 -11 -7 -47 -23 -80 -35 -79 -30 -85 -36 -85 -87 l0 -44 -60 0
-60 0 0 44 c0 51 -6 57 -85 87 -33 12 -69 28 -80 35 -31 22 -59 17 -90 -16
l-29 -30 -43 42 -43 42 30 31 c33 34 37 60 16 90 -7 11 -23 47 -35 80 -30 79
-36 85 -87 85 l-44 0 0 60 0 60 44 0 c51 0 60 8 86 84 10 31 26 66 34 78 23
33 20 58 -14 93 l-30 31 43 42 43 42 29 -30 c31 -33 59 -38 90 -16 11 7 47 23
80 35 79 30 85 36 85 87 l0 44 60 0 60 0 0 -44z m-567 -306 c-15 -38 -18 -40
-57 -40 -23 0 -52 -7 -64 -16 -21 -14 -22 -22 -22 -144 0 -122 1 -130 22 -144
12 -9 41 -16 63 -16 40 0 42 -2 62 -49 l21 -50 -30 -27 c-55 -53 -51 -65 53
-170 51 -52 102 -94 111 -94 10 0 35 15 55 33 l36 34 49 -21 c46 -19 48 -21
48 -61 0 -22 7 -51 16 -63 14 -21 22 -22 144 -22 122 0 130 1 144 22 9 12 16
41 16 63 0 40 2 42 48 61 l49 21 36 -34 c36 -33 70 -42 82 -23 21 35 25 -18
25 -361 l0 -371 -34 -34 -34 -34 -1031 0 c-1121 0 -1073 -2 -1099 55 -7 14
-12 55 -12 90 l0 65 924 0 c555 0 935 4 949 9 30 12 42 43 27 71 -11 20 -15
20 -955 20 l-945 0 0 70 0 70 188 0 c201 0 234 7 240 48 7 49 -5 52 -224 52
l-204 0 0 478 c1 511 1 510 51 538 19 11 149 13 646 14 l621 0 -15 -40z m-93
-1725 l0 -85 -110 0 -110 0 0 85 0 85 110 0 110 0 0 -85z m274 -206 c17 -14
26 -30 26 -50 l0 -29 -410 0 -410 0 6 28 c3 15 17 37 31 50 24 22 25 22 377
22 342 0 354 -1 380 -21z"/>
<path d="M1835 2211 c-84 -22 -163 -88 -206 -171 -33 -64 -33 -184 -1 -256 29
-64 92 -126 157 -156 70 -32 180 -32 250 0 114 52 179 154 179 282 0 128 -66
231 -178 281 -53 23 -152 33 -201 20z m160 -110 c134 -61 165 -233 61 -337
-105 -105 -274 -75 -337 61 -79 171 104 354 276 276z"/>
<path d="M696 1948 c-9 -12 -16 -37 -16 -55 0 -47 -30 -61 -82 -37 -52 23 -61
17 -121 -82 -55 -92 -57 -119 -10 -149 25 -15 32 -27 32 -50 0 -23 -7 -35 -32
-50 -18 -11 -33 -31 -35 -43 -2 -13 16 -58 44 -108 54 -95 76 -109 126 -79 41
24 78 6 78 -39 0 -18 7 -42 16 -54 14 -20 23 -22 123 -22 120 0 131 5 131 61
0 29 6 40 27 54 24 16 28 16 54 1 35 -21 62 -20 81 2 29 33 98 161 98 181 0
13 -14 30 -35 43 -47 31 -48 74 -2 103 47 30 44 57 -16 155 -56 92 -76 104
-121 74 -22 -14 -31 -14 -56 -4 -27 11 -30 17 -30 56 0 57 -14 64 -139 64 -92
0 -101 -2 -115 -22z m154 -101 c0 -27 26 -67 43 -67 7 0 29 -11 49 -25 40 -27
68 -31 98 -15 16 9 22 6 33 -17 14 -25 13 -29 -12 -53 -25 -23 -27 -31 -26
-99 2 -68 4 -76 29 -96 28 -22 28 -23 11 -49 -12 -18 -23 -25 -34 -20 -36 15
-63 16 -79 1 -9 -8 -36 -24 -58 -35 -42 -21 -54 -38 -54 -73 0 -15 -7 -19 -35
-19 -32 0 -35 2 -35 29 0 29 -22 61 -41 61 -5 0 -27 12 -49 26 -38 25 -60 27
-101 10 -11 -5 -19 1 -28 21 -11 25 -10 29 13 46 24 17 26 24 26 100 0 76 -2
83 -27 103 -27 21 -27 22 -10 48 15 21 21 24 37 16 24 -13 67 -13 75 0 4 6 29
22 56 35 45 23 49 28 49 60 0 33 2 35 35 35 30 0 35 -3 35 -23z"/>
<path d="M782 1608 c-35 -35 14 -102 57 -79 45 25 33 91 -17 91 -16 0 -33 -5
-40 -12z"/>
<path d="M642 1108 c-15 -15 -15 -51 0 -66 7 -7 24 -12 38 -12 31 0 50 17 50
45 0 12 -5 26 -12 33 -15 15 -61 15 -76 0z"/>
<path d="M2122 868 c-32 -32 5 -92 49 -81 29 8 44 45 30 72 -13 23 -59 29 -79
9z"/>
<path d="M1174 722 c-33 -23 -12 -82 30 -82 28 0 46 18 46 45 0 37 -44 59 -76
37z"/>
</g>
</svg>
