<?xml version="1.0" encoding="utf-8"?>
<svg id="master-artboard" viewBox="0 0 1400 980" version="1.1" xmlns="http://www.w3.org/2000/svg" x="0px" y="0px" style="enable-background:new 0 0 1400 980;" width="1400px" height="980px"><g transform="matrix(5.444444783528646, 0, 0, 5.444444783528646, 209.99998996132302, -0.000006826300307238853)"><g>
	<g>
		<path class="st0" d="M30.66,51.6v76.5c0,1.65,1.35,3,3,3h112.5c1.65,0,3-1.35,3-3V51.6c0-1.65-1.35-3-3-3H33.66&#10;&#9;&#9;&#9;C32.01,48.6,30.66,49.95,30.66,51.6z M146.16,129.6H33.66c-0.83,0-1.5-0.67-1.5-1.5v-69h115.5v69&#10;&#9;&#9;&#9;C147.66,128.93,146.99,129.6,146.16,129.6z M147.66,51.6v6H32.16v-6c0-0.83,0.67-1.5,1.5-1.5h112.5&#10;&#9;&#9;&#9;C146.99,50.1,147.66,50.78,147.66,51.6z" style="fill: rgb(16, 21, 34);"/>
		<path d="M 145.040004 53.849998 A 1.13 1.13 0 0 1 143.910004 54.979998 A 1.13 1.13 0 0 1 142.780004 53.849998 A 1.13 1.13 0 0 1 143.910004 52.719998 A 1.13 1.13 0 0 1 145.040004 53.849998 Z" class="st0" style="fill: rgb(16, 21, 34);"/>
		<path d="M 140.540004 53.849998 A 1.13 1.13 0 0 1 139.410004 54.979998 A 1.13 1.13 0 0 1 138.280004 53.849998 A 1.13 1.13 0 0 1 139.410004 52.719998 A 1.13 1.13 0 0 1 140.540004 53.849998 Z" class="st0" style="fill: rgb(16, 21, 34);"/>
		<path d="M 136.040004 53.849998 A 1.13 1.13 0 0 1 134.910004 54.979998 A 1.13 1.13 0 0 1 133.780004 53.849998 A 1.13 1.13 0 0 1 134.910004 52.719998 A 1.13 1.13 0 0 1 136.040004 53.849998 Z" class="st0" style="fill: rgb(16, 21, 34);"/>
		<path d="M 28.04 143.850006 A 1.13 1.13 0 0 1 26.91 144.980006 A 1.13 1.13 0 0 1 25.78 143.850006 A 1.13 1.13 0 0 1 26.91 142.720006 A 1.13 1.13 0 0 1 28.04 143.850006 Z" class="st0" style="fill: rgb(16, 21, 34);"/>
		<path class="st0" d="M157.41,38.85h-49.5c-0.83,0-1.5,0.67-1.5,1.5s0.67,1.5,1.5,1.5h49.5c1.65,0,3,1.35,3,3v93.75h-141V44.85&#10;&#9;&#9;&#9;c0-1.65,1.35-3,3-3h49.5c0.83,0,1.5-0.67,1.5-1.5s-0.67-1.5-1.5-1.5h-49.5c-3.31,0-6,2.69-6,6v99c0,3.31,2.69,6,6,6h57.75v10.5&#10;&#9;&#9;&#9;h-8.25c-0.83,0-1.5,0.67-1.5,1.5s0.67,1.5,1.5,1.5h36c0.83,0,1.5-0.67,1.5-1.5s-0.67-1.5-1.5-1.5h-8.25v-10.5h57.75&#10;&#9;&#9;&#9;c3.31,0,6-2.69,6-6v-99C163.41,41.54,160.72,38.85,157.41,38.85z M98.16,160.35h-16.5v-10.5h16.5V160.35z M157.41,146.85h-135&#10;&#9;&#9;&#9;c-1.65,0-3-1.35-3-3v-3.75h141v3.75C160.41,145.51,159.07,146.85,157.41,146.85z" style="fill: rgb(16, 21, 34);"/>
	</g>
	<g>
		<path class="st1" d="M89.91,59.85c0.83,0,1.5-0.67,1.5-1.5v-36c0-0.83-0.67-1.5-1.5-1.5s-1.5,0.67-1.5,1.5v36&#10;&#9;&#9;&#9;C88.41,59.18,89.08,59.85,89.91,59.85z" style="fill: rgb(16, 21, 34);"/>
		<path class="st1" d="M98.91,55.35c0.83,0,1.5-0.67,1.5-1.5v-36c0-0.83-0.67-1.5-1.5-1.5s-1.5,0.67-1.5,1.5v36&#10;&#9;&#9;&#9;C97.41,54.68,98.08,55.35,98.91,55.35z" style="fill: rgb(16, 21, 34);"/>
		<path class="st1" d="M80.91,55.35c0.83,0,1.5-0.67,1.5-1.5v-36c0-0.83-0.67-1.5-1.5-1.5s-1.5,0.67-1.5,1.5v36&#10;&#9;&#9;&#9;C79.41,54.68,80.08,55.35,80.91,55.35z" style="fill: rgb(16, 21, 34);"/>
		<path class="st1" d="M122.33,93.25l-13.5-9c-0.69-0.46-1.62-0.27-2.08,0.42c-0.46,0.69-0.27,1.62,0.42,2.08l11.63,7.75&#10;&#9;&#9;&#9;l-11.63,7.75c-0.69,0.46-0.88,1.39-0.42,2.08c0.29,0.43,0.76,0.67,1.25,0.67c0.29,0,0.57-0.08,0.83-0.25l13.5-9&#10;&#9;&#9;&#9;C122.75,95.47,123,95,123,94.5C123,94,122.75,93.53,122.33,93.25z" style="fill: rgb(16, 21, 34);"/>
		<path class="st1" d="M73.25,84.67c-0.46-0.69-1.39-0.88-2.08-0.42l-13.5,9C57.25,93.53,57,94,57,94.5c0,0.5,0.25,0.97,0.67,1.25&#10;&#9;&#9;&#9;l13.5,9c0.26,0.17,0.54,0.25,0.83,0.25c0.48,0,0.96-0.23,1.25-0.67c0.46-0.69,0.27-1.62-0.42-2.08L61.2,94.5l11.63-7.75&#10;&#9;&#9;&#9;C73.52,86.29,73.71,85.36,73.25,84.67z" style="fill: rgb(16, 21, 34);"/>
		<path class="st1" d="M99.83,79.75c-0.69-0.46-1.62-0.27-2.08,0.42l-18,27c-0.46,0.69-0.27,1.62,0.42,2.08&#10;&#9;&#9;&#9;c0.26,0.17,0.54,0.25,0.83,0.25c0.48,0,0.96-0.23,1.25-0.67l18-27C100.71,81.14,100.52,80.21,99.83,79.75z" style="fill: rgb(16, 21, 34);"/>
	</g>
</g></g></svg>