<?xml version="1.0" encoding="utf-8"?>
<!-- Generator: Adobe Illustrator 24.1.2, SVG Export Plug-In . SVG Version: 6.00 Build 0)  -->
<svg version="1.1" id="Layer_1" xmlns="http://www.w3.org/2000/svg" xmlns:xlink="http://www.w3.org/1999/xlink" x="0px" y="0px"
	 viewBox="0 0 176 180" style="enable-background:new 0 0 176 180;" xml:space="preserve">
<style type="text/css">
	.st0{fill:#BAADEF;}
	.st1{fill:#5331D6;}
</style>
<g>
	<path class="st0" d="M153.41,38.85h-49.5c-0.83,0-1.5,0.67-1.5,1.5s0.67,1.5,1.5,1.5h49.5c1.65,0,3,1.35,3,3v93.75h-141V44.85
		c0-1.65,1.35-3,3-3h49.5c0.83,0,1.5-0.67,1.5-1.5s-0.67-1.5-1.5-1.5h-49.5c-3.31,0-6,2.69-6,6v99c0,3.31,2.69,6,6,6h57.75v10.5
		h-8.25c-0.83,0-1.5,0.67-1.5,1.5s0.67,1.5,1.5,1.5h36c0.83,0,1.5-0.67,1.5-1.5s-0.67-1.5-1.5-1.5h-8.25v-10.5h57.75
		c3.31,0,6-2.69,6-6v-99C159.41,41.54,156.72,38.85,153.41,38.85z M94.16,160.35h-16.5v-10.5h16.5V160.35z M156.41,143.85
		c0,1.65-1.35,3-3,3h-135c-1.65,0-3-1.35-3-3v-3.75h141V143.85z"/>
	<path class="st0" d="M26.66,51.6v76.5c0,1.65,1.35,3,3,3h112.5c1.65,0,3-1.35,3-3V51.6c0-1.65-1.35-3-3-3H29.66
		C28.01,48.6,26.66,49.95,26.66,51.6z M143.66,128.1c0,0.83-0.67,1.5-1.5,1.5H29.66c-0.83,0-1.5-0.67-1.5-1.5v-69h115.5V128.1z
		 M143.66,51.6v6H28.16v-6c0-0.83,0.67-1.5,1.5-1.5h112.5C142.99,50.1,143.66,50.78,143.66,51.6z"/>
	<circle class="st0" cx="139.91" cy="53.85" r="1.13"/>
	<circle class="st0" cx="135.41" cy="53.85" r="1.13"/>
	<circle class="st0" cx="130.91" cy="53.85" r="1.13"/>
	<circle class="st0" cx="22.91" cy="143.85" r="1.13"/>
	<path class="st0" d="M85.91,98.48c6,0,10.88-4.88,10.88-10.88s-4.88-10.88-10.88-10.88S75.04,81.61,75.04,87.6
		S79.92,98.48,85.91,98.48z M85.91,78.23c5.17,0,9.38,4.21,9.38,9.38s-4.21,9.38-9.38,9.38s-9.38-4.21-9.38-9.38
		S80.74,78.23,85.91,78.23z"/>
	<path class="st0" d="M40.75,80.84l1.97,0.48c0.24,0.95,0.62,1.85,1.13,2.68l-1.03,1.75c-0.17,0.3-0.13,0.67,0.12,0.92l1.6,1.58
		c0.25,0.24,0.62,0.29,0.92,0.1l1.73-1.06c0.84,0.5,1.75,0.86,2.7,1.09l0.51,1.96c0.09,0.33,0.38,0.56,0.73,0.56c0,0,0,0,0.01,0
		l2.25-0.02c0.34,0,0.64-0.24,0.72-0.57l0.48-1.97c0.95-0.24,1.85-0.62,2.68-1.13l1.75,1.03c0.3,0.17,0.67,0.12,0.92-0.12l1.58-1.6
		c0.24-0.25,0.28-0.62,0.11-0.92l-1.06-1.73c0.5-0.84,0.86-1.74,1.09-2.7l1.97-0.51c0.33-0.09,0.56-0.39,0.56-0.73l-0.02-2.25
		c0-0.34-0.24-0.64-0.57-0.72l-1.97-0.48c-0.24-0.95-0.62-1.85-1.13-2.68l1.03-1.75c0.17-0.3,0.13-0.67-0.12-0.92l-1.6-1.58
		c-0.25-0.24-0.62-0.28-0.92-0.1l-1.73,1.06c-0.84-0.5-1.75-0.86-2.7-1.09l-0.51-1.96c-0.09-0.33-0.35-0.56-0.73-0.56l-2.25,0.02
		c-0.34,0-0.64,0.24-0.72,0.57l-0.48,1.97c-0.95,0.24-1.85,0.62-2.68,1.13l-1.75-1.03c-0.3-0.17-0.67-0.12-0.92,0.12l-1.58,1.6
		c-0.24,0.25-0.28,0.62-0.11,0.92l1.06,1.73c-0.5,0.84-0.86,1.74-1.09,2.7l-1.97,0.51c-0.33,0.09-0.56,0.39-0.56,0.73l0.02,2.25
		C40.17,80.46,40.41,80.76,40.75,80.84z M43.51,77.96c0.28-0.07,0.5-0.3,0.55-0.59c0.2-1.09,0.61-2.11,1.22-3.03
		c0.16-0.24,0.17-0.56,0.02-0.8l-0.99-1.63l0.76-0.77l1.64,0.97c0.25,0.15,0.56,0.14,0.81-0.03c0.91-0.62,1.92-1.05,3.01-1.27
		c0.29-0.06,0.51-0.28,0.58-0.56l0.45-1.86l1.08-0.01l0.48,1.85c0.07,0.28,0.3,0.5,0.59,0.55c1.09,0.2,2.11,0.61,3.03,1.22
		c0.24,0.16,0.56,0.17,0.8,0.01l1.63-0.99l0.77,0.76l-0.97,1.64c-0.15,0.25-0.14,0.56,0.03,0.8c0.62,0.91,1.05,1.92,1.27,3.01
		c0.06,0.29,0.28,0.51,0.56,0.58l1.86,0.45l0.01,1.08l-1.85,0.48c-0.28,0.07-0.5,0.3-0.55,0.59c-0.2,1.09-0.61,2.11-1.22,3.03
		c-0.16,0.24-0.17,0.56-0.02,0.8l0.99,1.63l-0.76,0.77l-1.64-0.97c-0.25-0.15-0.57-0.14-0.81,0.03c-0.91,0.62-1.92,1.05-3.01,1.27
		c-0.29,0.06-0.51,0.28-0.58,0.56l-0.45,1.86l-1.08,0.01l-0.48-1.85c-0.07-0.28-0.3-0.5-0.59-0.55c-1.09-0.2-2.11-0.61-3.03-1.22
		c-0.13-0.08-0.27-0.12-0.41-0.12c-0.14,0-0.27,0.04-0.39,0.11l-1.63,0.99L44.41,86l0.97-1.64c0.15-0.25,0.14-0.56-0.03-0.8
		c-0.62-0.91-1.05-1.92-1.27-3.01c-0.06-0.29-0.28-0.51-0.56-0.58l-1.86-0.45l-0.01-1.08L43.51,77.96z"/>
	<path class="st0" d="M49.99,84.89c0.71,0.26,1.44,0.38,2.17,0.38c0.92,0,1.84-0.2,2.7-0.61c1.54-0.72,2.71-2,3.29-3.6
		c0.58-1.6,0.5-3.33-0.22-4.87s-2-2.71-3.6-3.29c-1.6-0.58-3.33-0.5-4.87,0.22c-1.54,0.72-2.71,2-3.29,3.6
		c-0.58,1.6-0.5,3.33,0.22,4.87C47.11,83.14,48.39,84.31,49.99,84.89z M47.58,77.23c0.44-1.22,1.34-2.2,2.52-2.76
		c0.66-0.31,1.36-0.46,2.06-0.46c0.56,0,1.12,0.1,1.66,0.29c1.22,0.44,2.2,1.34,2.76,2.52c0.55,1.18,0.61,2.5,0.17,3.73
		c-0.44,1.22-1.34,2.2-2.52,2.75c-1.18,0.55-2.5,0.61-3.73,0.17c-1.22-0.44-2.2-1.34-2.76-2.52C47.19,79.78,47.13,78.46,47.58,77.23
		z"/>
	<path class="st0" d="M108.21,80.6l1.96,0.52c0.22,0.96,0.58,1.86,1.08,2.7l-1.06,1.73c-0.18,0.29-0.14,0.67,0.1,0.92l1.57,1.61
		c0.24,0.25,0.62,0.3,0.91,0.12l1.75-1.02c0.83,0.52,1.73,0.9,2.68,1.15l0.47,1.98c0.08,0.33,0.38,0.57,0.72,0.58l2.25,0.03
		c0,0,0.01,0,0.01,0c0.34,0,0.64-0.23,0.73-0.56l0.52-1.96c0.96-0.22,1.86-0.58,2.7-1.08l1.73,1.06c0.29,0.18,0.67,0.14,0.92-0.1
		l1.61-1.57c0.25-0.24,0.3-0.62,0.12-0.92l-1.02-1.75c0.52-0.83,0.9-1.73,1.15-2.68l1.98-0.47c0.33-0.08,0.57-0.38,0.58-0.72
		l0.03-2.25c0-0.34-0.23-0.65-0.56-0.74l-1.96-0.52c-0.22-0.96-0.58-1.86-1.08-2.7l1.06-1.73c0.18-0.29,0.14-0.67-0.1-0.92
		l-1.57-1.61c-0.24-0.25-0.62-0.3-0.91-0.12l-1.75,1.02c-0.83-0.51-1.73-0.9-2.68-1.14l-0.47-1.98c-0.08-0.33-0.38-0.57-0.72-0.58
		l-2.25-0.03c-0.38-0.03-0.65,0.23-0.73,0.56l-0.52,1.96c-0.96,0.22-1.86,0.58-2.7,1.08l-1.73-1.07c-0.29-0.18-0.67-0.14-0.92,0.1
		l-1.61,1.57c-0.25,0.24-0.3,0.62-0.12,0.92l1.02,1.75c-0.52,0.83-0.9,1.73-1.15,2.68l-1.98,0.47c-0.33,0.08-0.57,0.38-0.58,0.72
		l-0.03,2.25C107.64,80.21,107.88,80.51,108.21,80.6z M109.17,78.22l1.86-0.44c0.28-0.07,0.5-0.29,0.56-0.58
		c0.23-1.09,0.66-2.1,1.28-3c0.17-0.24,0.18-0.55,0.03-0.8l-0.96-1.65l0.77-0.75l1.62,1c0.25,0.15,0.56,0.15,0.81-0.01
		c0.92-0.6,1.94-1.01,3.03-1.21c0.29-0.05,0.52-0.27,0.59-0.55l0.49-1.85l1.08,0.01l0.44,1.86c0.07,0.28,0.29,0.5,0.58,0.56
		c1.09,0.23,2.1,0.66,3,1.28c0.24,0.17,0.55,0.18,0.8,0.03l1.65-0.96l0.75,0.77l-1,1.62c-0.15,0.25-0.15,0.56,0.01,0.81
		c0.6,0.92,1.01,1.94,1.21,3.03c0.05,0.29,0.27,0.52,0.55,0.59l1.85,0.49l-0.01,1.08L128.3,80c-0.28,0.07-0.5,0.29-0.56,0.58
		c-0.23,1.09-0.66,2.1-1.28,3c-0.17,0.24-0.18,0.55-0.03,0.8l0.96,1.65l-0.77,0.75l-1.62-1c-0.25-0.15-0.56-0.15-0.8,0.01
		c-0.92,0.6-1.94,1.01-3.03,1.21c-0.29,0.05-0.52,0.27-0.59,0.55l-0.49,1.85l-1.08-0.01l-0.44-1.86c-0.07-0.28-0.29-0.5-0.58-0.56
		c-1.09-0.23-2.1-0.66-3-1.28c-0.24-0.17-0.55-0.18-0.81-0.03l-1.65,0.96l-0.75-0.77l1-1.62c0.15-0.25,0.15-0.56-0.01-0.81
		c-0.6-0.92-1.01-1.94-1.21-3.03c-0.05-0.29-0.27-0.52-0.55-0.59l-1.85-0.49L109.17,78.22z"/>
	<path class="st0" d="M117.49,84.89c0.71,0.26,1.44,0.38,2.17,0.38c0.92,0,1.84-0.2,2.7-0.61c1.54-0.72,2.71-2,3.29-3.6
		c0.58-1.6,0.5-3.33-0.22-4.87s-2-2.71-3.6-3.29c-1.6-0.58-3.33-0.5-4.87,0.22c-1.54,0.72-2.71,2-3.29,3.6
		c-0.58,1.6-0.5,3.33,0.22,4.87C114.61,83.14,115.89,84.31,117.49,84.89z M115.08,77.23c0.44-1.22,1.34-2.2,2.52-2.76
		c0.66-0.31,1.36-0.46,2.06-0.46c0.56,0,1.12,0.1,1.66,0.29c1.22,0.44,2.2,1.34,2.76,2.52c0.55,1.18,0.61,2.5,0.17,3.73
		c-0.44,1.22-1.34,2.2-2.52,2.75c-1.18,0.55-2.5,0.61-3.73,0.17c-1.22-0.44-2.2-1.34-2.76-2.52
		C114.69,79.78,114.63,78.46,115.08,77.23z"/>
	<path class="st0" d="M126.41,111.6h-81c-0.41,0-0.75,0.34-0.75,0.75v9c0,0.41,0.34,0.75,0.75,0.75h81c0.41,0,0.75-0.34,0.75-0.75
		v-9C127.16,111.94,126.83,111.6,126.41,111.6z M125.66,120.6h-79.5v-7.5h79.5V120.6z"/>
</g>
<g>
	<path class="st1" d="M106.53,84.12l-3.46-0.86c-0.42-1.67-1.07-3.25-1.95-4.72l1.83-3.05c0.35-0.59,0.26-1.35-0.23-1.83l-2.86-2.86
		c-0.49-0.49-1.24-0.58-1.83-0.23l-3.05,1.83c-1.47-0.88-3.05-1.53-4.72-1.95l-0.86-3.46c-0.17-0.67-0.77-1.14-1.46-1.14h-4.05
		c-0.69,0-1.29,0.47-1.46,1.14l-0.86,3.46c-1.67,0.42-3.25,1.07-4.72,1.95l-3.05-1.83c-0.59-0.35-1.35-0.26-1.83,0.23l-2.86,2.86
		c-0.49,0.49-0.58,1.24-0.23,1.83l1.83,3.05c-0.88,1.47-1.53,3.05-1.95,4.72l-3.46,0.86c-0.67,0.17-1.14,0.77-1.14,1.46v4.05
		c0,0.69,0.47,1.29,1.14,1.46l3.46,0.86c0.42,1.67,1.07,3.25,1.95,4.72l-1.83,3.05c-0.35,0.59-0.26,1.35,0.23,1.83l2.86,2.86
		c0.49,0.49,1.24,0.58,1.83,0.23l3.05-1.83c1.47,0.88,3.05,1.53,4.72,1.95l0.86,3.46c0.17,0.67,0.77,1.14,1.46,1.14h4.05
		c0.69,0,1.29-0.47,1.46-1.14l0.86-3.46c1.67-0.42,3.25-1.07,4.72-1.95l3.05,1.83c0.59,0.35,1.35,0.26,1.83-0.23l2.86-2.86
		c0.49-0.49,0.58-1.24,0.23-1.83l-1.83-3.05c0.88-1.47,1.53-3.05,1.95-4.72l3.46-0.86c0.67-0.17,1.14-0.77,1.14-1.46v-4.05
		C107.66,84.89,107.19,84.29,106.53,84.12z M104.66,88.46l-3.22,0.8c-0.56,0.14-1,0.6-1.11,1.17c-0.38,1.94-1.13,3.75-2.22,5.38
		c-0.33,0.48-0.34,1.11-0.04,1.61l1.71,2.84l-1.21,1.21l-2.84-1.71c-0.5-0.3-1.13-0.28-1.61,0.04c-1.63,1.1-3.44,1.84-5.38,2.22
		c-0.57,0.11-1.03,0.54-1.17,1.11l-0.81,3.22h-1.71l-0.81-3.22c-0.14-0.56-0.6-1-1.17-1.11c-1.94-0.38-3.75-1.13-5.38-2.22
		c-0.48-0.32-1.11-0.34-1.61-0.04l-2.84,1.71l-1.21-1.21l1.7-2.84c0.3-0.5,0.28-1.13-0.04-1.61c-1.1-1.63-1.84-3.44-2.22-5.38
		c-0.11-0.57-0.54-1.03-1.11-1.17l-3.22-0.8v-1.71l3.22-0.8c0.56-0.14,1-0.6,1.11-1.17c0.38-1.94,1.13-3.75,2.22-5.38
		c0.33-0.48,0.34-1.11,0.04-1.61l-1.7-2.84l1.21-1.21l2.84,1.7c0.5,0.3,1.13,0.28,1.61-0.04c1.63-1.1,3.44-1.84,5.38-2.22
		c0.57-0.11,1.03-0.54,1.17-1.11l0.81-3.22h1.71l0.81,3.22c0.14,0.56,0.6,1,1.17,1.11c1.94,0.38,3.75,1.13,5.38,2.22
		c0.48,0.33,1.11,0.34,1.61,0.04l2.84-1.7l1.21,1.21l-1.71,2.84c-0.3,0.5-0.28,1.13,0.04,1.61c1.1,1.63,1.84,3.44,2.22,5.38
		c0.11,0.57,0.54,1.03,1.11,1.17l3.22,0.8V88.46z"/>
	<path class="st1" d="M103.91,115.35h-54c-0.83,0-1.5,0.67-1.5,1.5s0.67,1.5,1.5,1.5h54c0.83,0,1.5-0.67,1.5-1.5
		S104.74,115.35,103.91,115.35z"/>
	<path class="st1" d="M85.91,59.85c0.83,0,1.5-0.67,1.5-1.5v-36c0-0.83-0.67-1.5-1.5-1.5s-1.5,0.67-1.5,1.5v36
		C84.41,59.18,85.08,59.85,85.91,59.85z"/>
	<path class="st1" d="M94.91,55.35c0.83,0,1.5-0.67,1.5-1.5v-36c0-0.83-0.67-1.5-1.5-1.5s-1.5,0.67-1.5,1.5v36
		C93.41,54.68,94.08,55.35,94.91,55.35z"/>
	<path class="st1" d="M76.91,55.35c0.83,0,1.5-0.67,1.5-1.5v-36c0-0.83-0.67-1.5-1.5-1.5s-1.5,0.67-1.5,1.5v36
		C75.41,54.68,76.08,55.35,76.91,55.35z"/>
</g>
</svg>
