<?xml version="1.0" encoding="utf-8"?>
<!-- Generator: Adobe Illustrator 24.1.2, SVG Export Plug-In . SVG Version: 6.00 Build 0)  -->
<svg version="1.1" id="Layer_1" xmlns="http://www.w3.org/2000/svg" xmlns:xlink="http://www.w3.org/1999/xlink" x="0px" y="0px"
	 viewBox="0 0 180 180" style="enable-background:new 0 0 180 180;" xml:space="preserve">
<style type="text/css">
	.st0{fill:#BAADEF;}
	.st1{fill:#5331D6;}
</style>
<g>
	<g>
		<circle class="st0" cx="143.91" cy="53.85" r="1.13"/>
		<circle class="st0" cx="139.41" cy="53.85" r="1.13"/>
		<circle class="st0" cx="134.91" cy="53.85" r="1.13"/>
		<circle class="st0" cx="26.91" cy="143.85" r="1.13"/>
		<path class="st0" d="M157.41,38.85h-49.5c-0.83,0-1.5,0.67-1.5,1.5s0.67,1.5,1.5,1.5h49.5c1.65,0,3,1.35,3,3v93.75h-141V44.85
			c0-1.65,1.35-3,3-3h49.5c0.83,0,1.5-0.67,1.5-1.5s-0.67-1.5-1.5-1.5h-49.5c-3.31,0-6,2.69-6,6v99c0,3.31,2.69,6,6,6h57.75v10.5
			h-8.25c-0.83,0-1.5,0.67-1.5,1.5s0.67,1.5,1.5,1.5h36c0.83,0,1.5-0.67,1.5-1.5s-0.67-1.5-1.5-1.5h-8.25v-10.5h57.75
			c3.31,0,6-2.69,6-6v-99C163.41,41.54,160.72,38.85,157.41,38.85z M98.16,160.35h-16.5v-10.5h16.5V160.35z M157.41,146.85h-135
			c-1.65,0-3-1.35-3-3v-3.75h141v3.75C160.41,145.51,159.07,146.85,157.41,146.85z"/>
		<path class="st0" d="M30.66,51.6v76.5c0,1.65,1.35,3,3,3h112.5c1.65,0,3-1.35,3-3V51.6c0-1.65-1.35-3-3-3H33.66
			C32.01,48.6,30.66,49.95,30.66,51.6z M146.16,129.6H33.66c-0.83,0-1.5-0.67-1.5-1.5v-69h115.5v69
			C147.66,128.93,146.99,129.6,146.16,129.6z M147.66,51.6v6H32.16v-6c0-0.83,0.67-1.5,1.5-1.5h112.5
			C146.99,50.1,147.66,50.78,147.66,51.6z"/>
		<path class="st0" d="M87.3,78.28c-0.4-0.12-0.81,0.11-0.93,0.51l-4.5,15.35c-0.12,0.4,0.11,0.81,0.51,0.93
			c0.07,0.02,0.14,0.03,0.21,0.03c0.32,0,0.62-0.21,0.72-0.54l4.5-15.35C87.92,78.81,87.7,78.4,87.3,78.28z"/>
		<path class="st0" d="M99.12,78.28c-0.4-0.12-0.81,0.11-0.93,0.51l-4.5,15.35c-0.12,0.4,0.11,0.81,0.51,0.93
			c0.07,0.02,0.14,0.03,0.21,0.03c0.32,0,0.62-0.21,0.72-0.54l4.5-15.35C99.75,78.81,99.52,78.4,99.12,78.28z"/>
	</g>
	<g>
		<path class="st1" d="M103.41,110.85H77.53L64.35,66.92c-0.19-0.63-0.77-1.07-1.44-1.07h-4.5c-0.83,0-1.5,0.67-1.5,1.5
			s0.67,1.5,1.5,1.5h3.38l13.18,43.93c0.19,0.63,0.77,1.07,1.44,1.07h27c0.83,0,1.5-0.67,1.5-1.5S104.24,110.85,103.41,110.85z"/>
		<path class="st1" d="M118.11,70.95c-0.28-0.38-0.73-0.6-1.2-0.6h-45c-0.83,0-1.5,0.67-1.5,1.5s0.67,1.5,1.5,1.5h43.01l-8.14,28.5
			H80.91c-0.83,0-1.5,0.67-1.5,1.5s0.67,1.5,1.5,1.5h27c0.67,0,1.26-0.44,1.44-1.09l9-31.5C118.48,71.81,118.39,71.33,118.11,70.95z
			"/>
		<circle class="st1" cx="78.66" cy="119.1" r="2.25"/>
		<circle class="st1" cx="101.16" cy="119.1" r="2.25"/>
		<path class="st1" d="M89.91,59.85c0.83,0,1.5-0.67,1.5-1.5v-36c0-0.83-0.67-1.5-1.5-1.5s-1.5,0.67-1.5,1.5v36
			C88.41,59.18,89.08,59.85,89.91,59.85z"/>
		<path class="st1" d="M98.91,55.35c0.83,0,1.5-0.67,1.5-1.5v-36c0-0.83-0.67-1.5-1.5-1.5s-1.5,0.67-1.5,1.5v36
			C97.41,54.68,98.08,55.35,98.91,55.35z"/>
		<path class="st1" d="M80.91,55.35c0.83,0,1.5-0.67,1.5-1.5v-36c0-0.83-0.67-1.5-1.5-1.5s-1.5,0.67-1.5,1.5v36
			C79.41,54.68,80.08,55.35,80.91,55.35z"/>
	</g>
</g>
</svg>
